<svg height="295" viewBox="0 0 351 295" width="351" xmlns="http://www.w3.org/2000/svg" xmlns:xlink="http://www.w3.org/1999/xlink"><mask id="a" fill="#fff"><path d="m.0002 0h350.6328v294.4373h-350.6328z" fill="#fff" fill-rule="evenodd"/></mask><g fill="none" fill-rule="evenodd"><path d="m167.9992-.0007s-7.609 144.585-90.146 35.122c0 0 77.268 108.878-77.853 67.317 0 0 154.536 45.659 4.683 134.048 0 0 158.048-84.292 139.316 57.951 0 0 16.976-156.292 131.708-40.39 0 0-97.171-108.292 74.926-91.902 0 0-169.755-15.219-18.146-103.609 0 0-118.244 67.902-95.415-9.366 0 0-64.389 76.683-69.073-49.171" fill="#731550" mask="url(#a)"/><text fill="#f9f871" font-family="DamnNoisyKids, Damn Noisy Kids" font-size="36" letter-spacing="3.075"><tspan x="80" y="165">Desserts</tspan></text></g></svg>