<svg height="184" viewBox="0 0 1440 184" width="1440" xmlns="http://www.w3.org/2000/svg"><g fill="#1c032c" fill-rule="evenodd" opacity=".453427"><g transform="translate(1280 72)"><path d="m72 40v72h-8v-8h-8v8h-56v-72zm-40 48h-24v8h24zm32 0h-24v8h24zm0-16h-56v8h56zm-32-24h-24v8h24z"/><path d="m8 24h56v16h-56z"/><path d="m36 0 20 24h-40z"/></g><path d="m96 0v184h-96v-184zm-20 160h-8v16h8zm-24-16h-8v16h8zm-24-16h-8v16h8zm0-32h-8v16h8zm24 0h-8v16h8zm24 0h-8v16h8zm-60-40h-8v16h8zm24 0h-8v16h8zm48 0h-8v16h8zm-24 0h-8v16h8zm-40-40h-8v16h8zm56 0h-8v16h8z" transform="translate(88)"/><path d="m80 0v184h-80v-184zm-16.6666667 160h-6.6666666v16h6.6666666zm-20-16h-6.6666666v16h6.6666666zm-20-16h-6.6666666v16h6.6666666zm0-32h-6.6666666v16h6.6666666zm20 0h-6.6666666v16h6.6666666zm20 0h-6.6666666v16h6.6666666zm-50-40h-6.66666663v16h6.66666663zm20 0h-6.6666666v16h6.6666666zm40 0h-6.6666666v16h6.6666666zm-20 0h-6.6666666v16h6.6666666zm-33.3333333-40h-6.6666667v16h6.6666667zm46.6666667 0h-6.6666667v16h6.6666667z" transform="translate(944)"/><path d="m80 0v184h-80v-184zm-16.6666667 160h-6.6666666v16h6.6666666zm-20-16h-6.6666666v16h6.6666666zm-20-16h-6.6666666v16h6.6666666zm0-32h-6.6666666v16h6.6666666zm20 0h-6.6666666v16h6.6666666zm20 0h-6.6666666v16h6.6666666zm-50-40h-6.66666663v16h6.66666663zm20 0h-6.6666666v16h6.6666666zm40 0h-6.6666666v16h6.6666666zm-20 0h-6.6666666v16h6.6666666zm-33.3333333-40h-6.6666667v16h6.6666667zm46.6666667 0h-6.6666667v16h6.6666667z" transform="translate(1360)"/><path d="m80 0v184h-80v-184zm-16.6666667 160h-6.6666666v16h6.6666666zm-20-16h-6.6666666v16h6.6666666zm-20-16h-6.6666666v16h6.6666666zm0-32h-6.6666666v16h6.6666666zm20 0h-6.6666666v16h6.6666666zm20 0h-6.6666666v16h6.6666666zm-50-40h-6.66666663v16h6.66666663zm20 0h-6.6666666v16h6.6666666zm40 0h-6.6666666v16h6.6666666zm-20 0h-6.6666666v16h6.6666666zm-33.3333333-40h-6.6666667v16h6.6666667zm46.6666667 0h-6.6666667v16h6.6666667z" transform="translate(576)"/><g transform="translate(0 60.119275)"><path d="m88 27.8807254v95.9999996h-88v-95.9999996zm-72 64h-8v15.9999996h8zm24 0h-8v15.9999996h8zm16 0h-8v15.9999996h8zm24 0h-8v15.9999996h8zm0-24h-72v8h72zm-56-32h-8v16h8zm16 0h-8v16h8zm16 0h-8v16h8zm16 0h-8v16h8z"/><path d="m88 0v27.8807254h-88z"/></g><g transform="translate(856 60.119275)"><path d="m88 27.8807254v95.9999996h-88v-95.9999996zm-72 64h-8v15.9999996h8zm24 0h-8v15.9999996h8zm16 0h-8v15.9999996h8zm24 0h-8v15.9999996h8zm0-24h-72v8h72zm-56-32h-8v16h8zm16 0h-8v16h8zm16 0h-8v16h8zm16 0h-8v16h8z"/><path d="m88 0v27.8807254h-88z"/></g><g transform="translate(496 60.119275)"><path d="m72 27.8807254v95.9999996h-72v-95.9999996zm-58.9090909 64h-6.54545455v15.9999996h6.54545455zm19.6363636 0h-6.5454545v15.9999996h6.5454545zm13.0909091 0h-6.5454545v15.9999996h6.5454545zm19.6363637 0h-6.5454546v15.9999996h6.5454546zm0-24h-58.90909095v8h58.90909095zm-45.8181819-32h-6.5454545v16h6.5454545zm13.0909091 0h-6.5454545v16h6.5454545zm13.0909091 0h-6.5454545v16h6.5454545zm13.0909091 0h-6.5454545v16h6.5454545z"/><path d="m72 0v27.8807254h-72z"/></g><g transform="matrix(-1 0 0 1 848 60.119275)"><path d="m56 27.8807254v95.9999996h-56v-95.9999996zm-45.8181818 64h-5.09090911v15.9999996h5.09090911zm15.2727273 0h-5.0909091v15.9999996h5.0909091zm10.1818181 0h-5.0909091v15.9999996h5.0909091zm15.2727273 0h-5.0909091v15.9999996h5.0909091zm0-24h-45.81818181v8h45.81818181zm-35.6363636-32h-5.0909091v16h5.0909091zm10.1818182 0h-5.0909091v16h5.0909091zm10.1818181 0h-5.0909091v16h5.0909091zm10.1818182 0h-5.0909091v16h5.0909091z"/><path d="m56 0v27.8807254h-56z"/></g><g transform="translate(1200 24)"><path d="m72 32v128h-72v-128zm-24 104h-16v16h16zm-24-24h-16v16h16zm40-32h-16v16h16zm-40-32h-16v16h16z"/><path d="m0 0h24v32h-24z"/></g><g transform="matrix(-1 0 0 1 1128 24)"><path d="m56 32v128h-56v-128zm-18.6666667 104h-12.4444444v16h12.4444444zm-18.6666666-24h-12.44444448v16h12.44444448zm31.1111111-32h-12.4444445v16h12.4444445zm-31.1111111-32h-12.44444448v16h12.44444448z"/><path d="m0 0h18.666667v32h-18.666667z"/></g><g transform="matrix(-1 0 0 1 728 24)"><path d="m64 32v128h-64v-128zm-21.3333333 104h-14.2222223v16h14.2222223zm-21.3333334-24h-14.22222219v16h14.22222219zm35.5555556-32h-14.2222222v16h14.2222222zm-35.5555556-32h-14.22222219v16h14.22222219z"/><path d="m0 0h21.333333v32h-21.333333z"/></g><g transform="matrix(-1 0 0 1 256 88.119275)"><path d="m64 21.5850778v74.3225806h-64v-74.3225806zm-52.3636364 49.5483871h-5.81818178v12.3870967h5.81818178zm17.4545455 0h-5.8181818v12.3870967h5.8181818zm11.6363636 0h-5.8181818v12.3870967h5.8181818zm17.4545455 0h-5.8181818v12.3870967h5.8181818zm0-18.5806452h-52.36363638v6.1935484h52.36363638zm-40.7272727-24.7741936h-5.8181819v12.3870968h5.8181819zm11.6363636 0h-5.8181818v12.3870968h5.8181818zm11.6363636 0h-5.8181818v12.3870968h5.8181818zm11.6363637 0h-5.8181819v12.3870968h5.8181819z"/><path d="m64 0v21.5850778h-64z"/></g><g transform="matrix(-1 0 0 1 1192 88.119275)"><path d="m64 21.5850778v74.3225806h-64v-74.3225806zm-52.3636364 49.5483871h-5.81818178v12.3870967h5.81818178zm17.4545455 0h-5.8181818v12.3870967h5.8181818zm11.6363636 0h-5.8181818v12.3870967h5.8181818zm17.4545455 0h-5.8181818v12.3870967h5.8181818zm0-18.5806452h-52.36363638v6.1935484h52.36363638zm-40.7272727-24.7741936h-5.8181819v12.3870968h5.8181819zm11.6363636 0h-5.8181818v12.3870968h5.8181818zm11.6363636 0h-5.8181818v12.3870968h5.8181818zm11.6363637 0h-5.8181819v12.3870968h5.8181819z"/><path d="m64 0v21.5850778h-64z"/></g><g transform="translate(264)"><path d="m80 66.4285714v119.5714286h-8.8888889v-13.285714h-8.8888889v13.285714h-62.2222222v-119.5714286zm-44.4444444 79.7142856h-26.66666671v13.285714h26.66666671zm35.5555555 0h-26.6666667v13.285714h26.6666667zm0-26.571428h-62.22222221v13.285714h62.22222221zm-35.5555555-39.8571433h-26.66666671v13.2857143h26.66666671z"/><path d="m8.888889 39.857143h62.222222v26.571429h-62.222222z"/><path d="m40 0 22.2222222 39.8571429h-44.4444444z"/></g><g transform="translate(1032 104)"><path d="m32 29.2857143v52.7142857h-3.5555556v-5.8571429h-3.5555555v5.8571429h-24.8888889v-52.7142857zm-17.7777778 35.1428571h-10.66666664v5.8571429h10.66666664zm14.2222222 0h-10.6666666v5.8571429h10.6666666zm0-11.7142857h-24.88888884v5.8571429h24.88888884zm-14.2222222-17.5714286h-10.66666664v5.8571429h10.66666664z"/><path d="m3.555556 17.571429h24.888889v11.714286h-24.888889z"/><path d="m16 0 8.8888889 17.5714286h-17.77777779z"/></g><g transform="translate(416 26)"><path d="m72 32v128h-72v-128zm-24 104h-16v16h16zm-24-24h-16v16h16zm40-32h-16v16h16zm-40-32h-16v16h16z"/><path d="m0 0h24v32h-24z"/></g><g transform="translate(352 80)"><path d="m64 37.8571429v68.1428571h-7.1111111v-7.5714286h-7.1111111v7.5714286h-49.7777778v-68.1428571zm-35.5555556 45.4285714h-21.33333329v7.5714286h21.33333329zm28.4444445 0h-21.3333333v7.5714286h21.3333333zm0-15.1428572h-49.77777779v7.5714286h49.77777779zm-28.4444445-22.7142857h-21.33333329v7.5714286h21.33333329z"/><path d="m7.111111 22.714286h49.777778v15.142857h-49.777778z"/><path d="m32 0 17.7777778 22.7142857h-35.5555556z"/></g><g transform="translate(728 80)"><path d="m64 37.8571429v68.1428571h-7.1111111v-7.5714286h-7.1111111v7.5714286h-49.7777778v-68.1428571zm-35.5555556 45.4285714h-21.33333329v7.5714286h21.33333329zm28.4444445 0h-21.3333333v7.5714286h21.3333333zm0-15.1428572h-49.77777779v7.5714286h49.77777779zm-28.4444445-22.7142857h-21.33333329v7.5714286h21.33333329z"/><path d="m7.111111 22.714286h49.777778v15.142857h-49.777778z"/><path d="m32 0 17.7777778 22.7142857h-35.5555556z"/></g></g></svg>