<svg height="38" viewBox="0 0 230 38" width="230" xmlns="http://www.w3.org/2000/svg" xmlns:xlink="http://www.w3.org/1999/xlink"><mask id="a" fill="#fff"><path d="m.00236269.03544041h36.91079791v7.16841451h-36.91079791z" fill="#fff" fill-rule="evenodd"/></mask><g fill="#fff" fill-rule="evenodd" transform="translate(-11 -7)"><g transform="translate(11 7)"><path d="m22.5125389 18.7440415c-.2402073.4646632-.8623835.5237305-1.4727462.1890155-.4134715-.2283938-.4095336-.8072539-.3622797-1.161658.0236269-.1929534.0945077-.3740933.200829-.5276684.1456995-.2087047.3937824-.4843524.6773057-.492228.4607254-.0157513.8584456.2205181 1.0829015.6418653.224456.4213471.1141969.8860103-.1260103 1.3506736zm-4.5796892-.5788602c-.3268393.3386529-.76.3071503-1.2167875.1338861-.4567876-.1693265-.6615544-.7954405-.4882902-1.5475648.1299482-.559171.7363731-.6418653 1.0395855-.6497409.1141969-.0039379.2283938.0236269.334715.0787564.2165803.1102591.5788601.3425907.6536788.7009327.1063212.5119171.0039378.9450777-.3229016 1.2837305zm4.9970985-18.15336783-1.1655959 12.51440413-1.988601-10.54943004-6.2414508 1.49637306 1.9886011 10.54943008-8.99792751 2.1539896 1.59088083 8.426943 15.81823838 3.7881865 3.6188601-9.1554404 1.720829-18.46839375z"/><path d="m26.4739896 32.8887047c-.5631088 0-1.0356476.2559585-1.3349222.7284974l-.1338861-.6182384h-1.2876683l.2087046.9568912v3.9378239h1.252228v-3.1187565c.1693264-.3229016.4882902-.5197928.9017617-.5197928.2559585 0 .4882901.066943.7048704.2165803l.5946114-1.3388601c-.2756476-.1693264-.5946114-.244145-.9056995-.244145"/><g transform="translate(0 30.793782)"><path d="m29.3210363 5.88704663c-.7245596 0-1.2601037-.48435233-1.2601037-1.23253886 0-.76.5355441-1.23253886 1.2601037-1.23253886.7324352 0 1.2601255.47253886 1.2601255 1.23253886.0039159.75212435-.5237525 1.23253886-1.2601255 1.23253886zm0-3.7842487c-1.4215544 0-2.4768912 1.03564767-2.4768912 2.55170984 0 1.51606218 1.0553368 2.55170985 2.4729533 2.55170985 1.4215544 0 2.4729972-1.03170985 2.4729972-2.55170985.0078319-1.51606217-1.0475049-2.55170984-2.4690593-2.55170984z" mask="url(#a)"/><path d="m34.4402073 5.88704663c-.7245596 0-1.2601037-.48435233-1.2601037-1.23253886 0-.76.5355441-1.23253886 1.2601037-1.23253886.7324352 0 1.2601036.47253886 1.2601036 1.23253886 0 .75212435-.5237306 1.23253886-1.2601036 1.23253886zm0-3.7842487c-1.4215545 0-2.4768912 1.03564767-2.4768912 2.55170984 0 1.51606218 1.0553367 2.55170985 2.4729533 2.55170985 1.4215544 0 2.4769022-1.03170985 2.4769022-2.55170985.0039268-1.51606217-1.0514099-2.55170984-2.4729643-2.55170984z" mask="url(#a)"/><path d="m2.47295337 5.88704663c-.72455959 0-1.26010363-.48435233-1.26010363-1.23253886 0-.76.53554404-1.23253886 1.26010363-1.23253886.73243523 0 1.26012552.47253886 1.26012552 1.23253886.00391593.75212435-.52375247 1.23253886-1.26012552 1.23253886zm2.50445596-5.85160622h-1.25222798v2.76041451c-.37803109-.43709844-.89388601-.69305699-1.50424871-.69305699-1.25222798 0-2.22093264 1.03170984-2.22093264 2.55170984 0 1.51606218.96870466 2.55170985 2.22093264 2.55170985.62217617 0 1.15772021-.2638342 1.5357513-.72062177l.12994818.61823835h1.30735752l-.21658031-1.01595855z" mask="url(#a)"/><path d="m16.3970984 6.17450777-.960829-3.9653886h-1.3427979l1.3073575 4.89471503h2.012228l1.3073575-4.89471503h-1.362487z" mask="url(#a)"/><path d="m19.8781347 4.20953368c.1417617-.55917099.5631088-.86238342 1.2049741-.86238342.6497409 0 1.0750259.30321243 1.2049741.86238342zm1.2049741-2.10673575c-1.4097409 0-2.4453886 1.02383419-2.4453886 2.55170984 0 1.55544042 1.027772 2.55170985 2.614715 2.55170985.6969949 0 1.3821762-.18901555 1.9570985-.55917099l-.4804145-1.08290155c-.4528498.23626943-.9490156.37803109-1.4569948.37803109-.6576166 0-1.118342-.25595855-1.319171-.72849741h3.5204145c.0393782-.1811399.0551295-.35834197.0551295-.57886011 0-1.51606217-1.0435233-2.53202072-2.4453886-2.53202072z" mask="url(#a)"/></g><path d="m6.60373057 35.0033161c.14176166-.559171.56310881-.8623835 1.20497409-.8623835.64974094 0 1.07108809.3032125 1.2049741.8623835zm1.22860104-2.1185493c-1.40974094 0-2.4453886 1.0238342-2.4453886 2.5517099 0 1.5554404 1.02383419 2.5517098 2.61471502 2.5517098.69699482 0 1.38217617-.1890155 1.95709845-.559171l-.48041451-1.0829015c-.45284974.2362694-.94901555.3780311-1.45699482.3780311-.65761658 0-1.11834197-.2559586-1.31917098-.7284974h3.52041453c.0393782-.1811399.0551295-.358342.0551295-.5788601 0-1.5160622-1.04352331-2.5320208-2.44538859-2.5320208z"/><path d="m13.2271503 30.734715c-.4528498 0-.7915026.3425907-.7915026.7954404 0 .4528498.3386528.7954405.7915026.7954405.4410362 0 .7796891-.3425907.7796891-.7954405 0-.4528497-.3386529-.7954404-.7796891-.7954404"/><path d="m12.5970984 37.8976166h1.252228v-4.894715h-1.252228z"/><path d="m10.6478756 37.8976166h1.252228v-7.0683938h-1.252228z"/></g><text font-family="DamnNoisyKids, Damn Noisy Kids" font-size="19" letter-spacing=".35625"><tspan x="56" y="34">order for delivery</tspan></text></g></svg>