<svg height="13" viewBox="0 0 16 13" width="16" xmlns="http://www.w3.org/2000/svg" xmlns:xlink="http://www.w3.org/1999/xlink"><mask id="a" fill="#fff"><path d="m.00000881 0h15.45161489v12.9752031h-15.45161489z" fill="#fff" fill-rule="evenodd"/></mask><path d="m7.40335458-.00003085s-.33531187 6.37154238-3.9725356 1.54774916c0 0 3.40503051 4.79801355-3.43081017 2.96651186 0 0 6.81006102 2.01209152.2063695 5.90720003 0 0 6.96482711-3.71456274 6.13934915 2.5537729 0 0 .74809491-6.88744412 5.80408134-1.7798984 0 0-4.28211185-4.77218978 3.3018237-4.0499186 0 0-7.48072877-.67066779-.7996542-4.56582034 0 0-5.21075254 2.99229153-4.2047288-.41273898 0 0-2.83748136 3.37925085-3.04389492-2.16685763" fill="#731550" fill-rule="evenodd" mask="url(#a)"/></svg>